<svg width="77" height="80" viewBox="0 0 77 80" fill="none" xmlns="http://www.w3.org/2000/svg">
<path d="M38.5 80C59.763 80 77 62.0914 77 40C77 17.9086 59.763 0 38.5 0C17.237 0 0 17.9086 0 40C0 62.0914 17.237 80 38.5 80Z" fill="#98D762"/>
<path fill-rule="evenodd" clip-rule="evenodd" d="M76.8903 43.0348C75.3974 63.7084 58.7801 80 38.5 80C18.2198 80 1.60245 63.7084 0.109711 43.0348C1.60245 22.3613 18.2198 5.42204 38.5 5.42204C58.7801 5.42204 75.3974 22.3613 76.8903 43.0348Z" fill="#7FAD5B"/>
<path fill-rule="evenodd" clip-rule="evenodd" d="M71.9137 59.8831C66.1923 70.2394 56.1389 77.6826 44.3219 79.545C37.224 71.6968 29.0633 63.7875 22.5831 55.5133L22.582 55.5119L22.5808 55.5104L22.5797 55.509L22.5785 55.5075L22.5773 55.5061L22.5762 55.5046L22.5751 55.5032L22.5744 55.5022L22.5638 55.4887L22.5533 55.475L22.5531 55.4747L22.5492 55.4705L22.5496 55.4702L22.5483 55.4685L22.547 55.4669L22.5458 55.4652L22.5445 55.4636C22.523 55.4356 22.5018 55.4076 22.4808 55.3793L22.4795 55.3777L22.4783 55.3759L22.477 55.3743L22.4758 55.3726L22.4746 55.371L22.4734 55.3693L22.4721 55.3676L22.4709 55.366L22.4697 55.3643L22.459 55.3498L22.4578 55.3482L22.4565 55.3465L22.4552 55.3448L22.454 55.3431L22.4528 55.3415L22.4516 55.3398L22.4504 55.3381L22.4492 55.3365L22.4479 55.3348C21.528 54.0754 21.2601 53.0237 21.0871 51.5149L21.0473 29.0716C21.0465 28.6189 21.0886 28.1757 21.1667 27.7456C21.4787 26.0289 22.3434 24.4809 23.6103 23.4273C24.7924 22.4441 26.33 21.8969 27.9529 21.8969H49.0184C52.7322 21.8969 55.9242 25.0348 55.9242 28.8932L71.9137 59.8831ZM21.1667 27.7456C21.6952 24.4315 24.472 21.8969 27.8095 21.8969H27.9529L21.1667 27.7456Z" fill="#98D762"/>
<path d="M49.188 21.8969H27.8095C24.096 21.8969 21.0758 25.0348 21.0758 28.8932V36.2852V51.1067C21.0758 54.9652 24.096 58.1031 27.8095 58.1031H49.188C52.9017 58.1031 55.9242 54.9652 55.9242 51.1067V36.2852V28.8932C55.9242 25.0348 52.9017 21.8969 49.188 21.8969ZM51.1209 26.0715L51.8899 26.0666V26.8655V32.2023L46.0051 32.2229L45.9842 26.0871L51.1209 26.0715ZM33.5271 36.2852C34.6434 34.68 36.4531 33.6288 38.5 33.6288C40.5467 33.6288 42.3565 34.68 43.4728 36.2852C44.1988 37.3316 44.6345 38.6146 44.6345 40C44.6345 43.512 41.8803 46.3711 38.5 46.3711C35.1173 46.3711 32.3655 43.512 32.3655 40C32.3655 38.6146 32.8011 37.3316 33.5271 36.2852ZM52.5299 51.1067C52.5299 53.0209 51.0303 54.5766 49.188 54.5766H27.8095C25.9673 54.5766 24.4699 53.0209 24.4699 51.1067V36.2852H29.6716C29.2221 37.4329 28.9711 38.6868 28.9711 40C28.9711 45.4586 33.246 49.8999 38.5 49.8999C43.7539 49.8999 48.0286 45.4586 48.0286 40C48.0286 38.6868 47.7743 37.4329 47.3259 36.2852H52.5299V51.1067Z" fill="white"/>
</svg>
